<svg width="24" height="24" viewBox="0 0 24 24" fill="none" xmlns="http://www.w3.org/2000/svg">
  <path opacity="0.2" d="M16.5 9C16.5 9.89002 16.2361 10.76 15.7416 11.5001C15.2471 12.2401 14.5443 12.8169 13.7221 13.1575C12.8998 13.4981 11.995 13.5872 11.1221 13.4135C10.2492 13.2399 9.44736 12.8113 8.81802 12.182C8.18869 11.5526 7.7601 10.7508 7.58647 9.87791C7.41283 9.00499 7.50195 8.10019 7.84254 7.27792C8.18314 6.45566 8.75991 5.75285 9.49994 5.25839C10.24 4.76392 11.11 4.5 12 4.5C13.1935 4.5 14.3381 4.97411 15.182 5.81802C16.0259 6.66193 16.5 7.80653 16.5 9Z" fill="white" fill-opacity="0.8"/>
  <path d="M20.25 8.99904C20.2508 7.60873 19.9003 6.24076 19.2309 5.02219C18.5616 3.80362 17.5951 2.77397 16.4213 2.02889C15.2475 1.2838 13.9044 0.847445 12.5168 0.760347C11.1293 0.673249 9.74217 0.938235 8.48441 1.53069C7.22665 2.12315 6.13901 3.02386 5.32253 4.14917C4.50604 5.27447 3.98718 6.58787 3.81415 7.96737C3.64111 9.34687 3.81951 10.7477 4.33278 12.0398C4.84605 13.3319 5.67753 14.4734 6.75 15.3581V22.499C6.74991 22.6269 6.78253 22.7528 6.84477 22.8645C6.907 22.9762 6.99678 23.0702 7.10558 23.1375C7.21437 23.2048 7.33856 23.2431 7.46634 23.2488C7.59412 23.2546 7.72124 23.2275 7.83563 23.1703L12 21.0928L16.1653 23.175C16.2697 23.2249 16.3842 23.2503 16.5 23.249C16.6989 23.249 16.8897 23.17 17.0303 23.0294C17.171 22.8887 17.25 22.698 17.25 22.499V15.3581C18.1884 14.5853 18.944 13.6143 19.4627 12.5148C19.9814 11.4153 20.2503 10.2147 20.25 8.99904ZM5.25 8.99904C5.25 7.66402 5.64588 6.35897 6.38758 5.24894C7.12928 4.13891 8.18349 3.27374 9.41689 2.76285C10.6503 2.25196 12.0075 2.11829 13.3169 2.37874C14.6262 2.63919 15.829 3.28206 16.773 4.22607C17.717 5.17007 18.3599 6.37281 18.6203 7.68218C18.8808 8.99155 18.7471 10.3488 18.2362 11.5822C17.7253 12.8156 16.8601 13.8698 15.7501 14.6115C14.6401 15.3532 13.335 15.749 12 15.749C10.2104 15.7471 8.49466 15.0353 7.22922 13.7698C5.96378 12.5044 5.25199 10.7886 5.25 8.99904ZM15.75 21.2859L12.3347 19.5787C12.2305 19.5266 12.1156 19.4994 11.9991 19.4994C11.8825 19.4994 11.7676 19.5266 11.6634 19.5787L8.25 21.2859V16.3462C9.41097 16.9396 10.6962 17.249 12 17.249C13.3038 17.249 14.589 16.9396 15.75 16.3462V21.2859ZM12 14.249C13.0384 14.249 14.0534 13.9411 14.9167 13.3643C15.7801 12.7874 16.453 11.9674 16.8504 11.0081C17.2477 10.0488 17.3517 8.99322 17.1491 7.97482C16.9466 6.95642 16.4465 6.02095 15.7123 5.28673C14.9781 4.5525 14.0426 4.05249 13.0242 3.84992C12.0058 3.64734 10.9502 3.75131 9.99091 4.14867C9.0316 4.54603 8.21166 5.21894 7.63479 6.0823C7.05791 6.94565 6.75 7.96069 6.75 8.99904C6.75149 10.391 7.30509 11.7255 8.28934 12.7097C9.27358 13.6939 10.6081 14.2476 12 14.249ZM12 5.24904C12.7417 5.24904 13.4667 5.46897 14.0834 5.88103C14.7001 6.29308 15.1807 6.87875 15.4646 7.56398C15.7484 8.2492 15.8226 9.0032 15.6779 9.73063C15.5333 10.4581 15.1761 11.1262 14.6517 11.6507C14.1272 12.1751 13.459 12.5323 12.7316 12.677C12.0042 12.8217 11.2502 12.7474 10.5649 12.4636C9.87972 12.1798 9.29405 11.6991 8.88199 11.0824C8.46994 10.4657 8.25 9.74072 8.25 8.99904C8.25 8.00448 8.64509 7.05065 9.34835 6.34739C10.0516 5.64413 11.0054 5.24904 12 5.24904Z" fill="white" fill-opacity="0.8"/>
  </svg>
