<svg width="38" height="38" viewBox="0 0 38 38" fill="none" xmlns="http://www.w3.org/2000/svg">
  <path
    d="M31.893 29.6558L26.7581 24.5209C28.3143 22.4836 29.1679 20.0126 29.1682 17.4051C29.1682 14.2628 27.9444 11.3083 25.7221 9.08639C23.5001 6.86446 20.5461 5.64062 17.4034 5.64062C14.2611 5.64062 11.3066 6.86446 9.08469 9.08639C4.49781 13.6736 4.49781 21.1373 9.08469 25.7238C11.3066 27.9461 14.2611 29.1699 17.4034 29.1699C20.0109 29.1696 22.4819 28.316 24.5192 26.7598L29.6541 31.8947C29.963 32.204 30.3685 32.3586 30.7736 32.3586C31.1787 32.3586 31.5842 32.204 31.893 31.8947C32.5115 31.2766 32.5115 30.2739 31.893 29.6558ZM11.3236 23.4848C7.97141 20.1326 7.97179 14.6779 11.3236 11.3253C12.9475 9.70178 15.1068 8.80729 17.4034 8.80729C19.7003 8.80729 21.8592 9.70178 23.4831 11.3253C25.107 12.9492 26.0015 15.1085 26.0015 17.4051C26.0015 19.702 25.107 21.8609 23.4831 23.4848C21.8592 25.1087 19.7003 26.0032 17.4034 26.0032C15.1068 26.0032 12.9475 25.1087 11.3236 23.4848Z"
    fill="#032E15" />
</svg>